<svg width="25" height="26" viewBox="0 0 25 26" fill="none" xmlns="http://www.w3.org/2000/svg">
<path d="M1.02051 20.0184C1.11741 20.998 1.5031 21.9268 2.12865 22.6869C2.7542 23.4469 3.59142 24.0041 4.53409 24.2876C5.25303 24.4898 6.00855 24.5257 6.74341 24.3925C7.47826 24.2593 8.17316 23.9606 8.77542 23.519C9.37768 23.0774 9.8715 22.5044 10.2195 21.8436C10.5674 21.1828 10.7604 20.4514 10.7837 19.705C10.8132 18.9148 11.0438 18.1452 11.4535 17.469C11.8633 16.7927 12.4387 16.232 13.1254 15.84C14.5204 15.0282 15.6247 13.798 16.2817 12.3237C16.9388 10.8494 17.1154 9.20578 16.7865 7.62558C16.4575 6.04538 15.6398 4.6087 14.4491 3.51904C13.2583 2.42938 11.7549 1.74195 10.1518 1.55413C8.69734 1.42168 7.23601 1.71981 5.94965 2.41144C4.66329 3.10308 3.60869 4.15767 2.91704 5.44403C2.91704 5.44403 1.02051 8.96859 1.02051 11.1806V20.0184Z" fill="white"/>
<path d="M18.9883 11.5029H23.9792" stroke="#365382" strokeLinecap="round" strokeLinejoin="round"/>
<path d="M18.9883 8.50807L22.981 6.51172" stroke="#365382" strokeLinecap="round" strokeLinejoin="round"/>
<path d="M18.9883 14.4971L22.981 16.4934" stroke="#365382" strokeLinecap="round" strokeLinejoin="round"/>
<path d="M5.13973 7.89654C5.82374 7.59226 6.57295 7.46377 7.31926 7.52275C8.06556 7.58173 8.7853 7.8263 9.41302 8.23424C10.0407 8.64217 10.5566 9.20054 10.9136 9.85856C11.2706 10.5166 11.4574 11.2534 11.4572 12.002C11.475 12.9648 11.1694 13.9058 10.5892 14.6743C10.0091 15.4429 9.18787 15.9946 8.25704 16.2413C7.92054 16.3294 7.61768 16.5152 7.38672 16.7753C7.15577 17.0354 7.00707 17.3581 6.95941 17.7026C6.91894 18.1208 6.74609 18.5151 6.46603 18.8282C6.18596 19.1412 5.8133 19.3568 5.40225 19.4435C5.11188 19.5075 4.81086 19.506 4.52118 19.4388C4.2315 19.3717 3.96048 19.2407 3.72792 19.0554C3.49536 18.87 3.30713 18.6351 3.17698 18.3678C3.04684 18.1004 2.97806 17.8073 2.97569 17.51C2.60176 14.1537 3.3637 10.7689 5.13973 7.89654Z" fill="white"/>
<path d="M1.02051 20.0184C1.11741 20.998 1.5031 21.9268 2.12865 22.6869C2.7542 23.4469 3.59142 24.0041 4.53409 24.2876C5.25303 24.4898 6.00855 24.5257 6.74341 24.3925C7.47826 24.2593 8.17316 23.9606 8.77542 23.519C9.37768 23.0774 9.8715 22.5044 10.2195 21.8436C10.5674 21.1828 10.7604 20.4514 10.7837 19.705C10.8132 18.9148 11.0438 18.1452 11.4535 17.469C11.8633 16.7927 12.4387 16.232 13.1254 15.84C14.5204 15.0282 15.6247 13.798 16.2817 12.3237C16.9388 10.8494 17.1154 9.20578 16.7865 7.62558C16.4575 6.04538 15.6398 4.6087 14.4491 3.51904C13.2583 2.42938 11.7549 1.74195 10.1518 1.55413C8.69734 1.42168 7.23601 1.71981 5.94965 2.41144C4.66329 3.10308 3.60869 4.15767 2.91704 5.44403" stroke="#365382" strokeLinecap="round" strokeLinejoin="round"/>
<path d="M5.13965 7.89694C5.39528 7.07704 5.90778 6.36107 6.60149 5.85475C7.29519 5.34842 8.13331 5.07859 8.99212 5.08508C9.85092 5.09156 10.6849 5.37404 11.3708 5.89079C12.0568 6.40753 12.5584 7.13117 12.8017 7.95483C11.6262 7.3208 10.3134 6.98405 8.97784 6.97396C7.6423 6.96387 6.32458 7.28074 5.13965 7.89694Z" fill="white"/>
<path d="M5.13963 7.89752C5.82356 7.59328 6.57269 7.46478 7.31891 7.52371C8.06514 7.58264 8.7848 7.82712 9.4125 8.23494C10.0402 8.64276 10.556 9.20099 10.9131 9.85888C11.2702 10.5168 11.4572 11.2535 11.4571 12.002C11.4749 12.9648 11.1693 13.9058 10.5891 14.6743C10.009 15.4429 9.18777 15.9946 8.25694 16.2413C7.92044 16.3293 7.61758 16.5152 7.38662 16.7753C7.15567 17.0354 7.00697 17.3581 6.95931 17.7026C6.91884 18.1207 6.74599 18.515 6.46593 18.8281C6.18586 19.1412 5.8132 19.3568 5.40215 19.4434C5.11178 19.5075 4.81076 19.5059 4.52108 19.4388C4.2314 19.3716 3.96038 19.2406 3.72782 19.0553C3.49526 18.87 3.30703 18.6351 3.17688 18.3677C3.04674 18.1004 2.97796 17.8073 2.97559 17.51" stroke="#365382" strokeLinecap="round" strokeLinejoin="round"/>
<path d="M6.51094 13.4987C6.75692 13.4987 6.99912 13.4382 7.21614 13.3224C7.43315 13.2066 7.61829 13.0391 7.75519 12.8347C7.89209 12.6303 7.97653 12.3954 8.00105 12.1506C8.02557 11.9059 7.9894 11.6589 7.89576 11.4314C7.80212 11.2039 7.65388 11.0031 7.46414 10.8465C7.27441 10.69 7.04903 10.5826 6.80793 10.5338C6.56683 10.4851 6.31743 10.4965 6.08179 10.5671C5.84614 10.6376 5.63151 10.7651 5.45686 10.9383C5.13583 10.3578 4.96785 9.70517 4.96875 9.04181C4.97994 8.08497 5.33397 7.16388 5.96653 6.44586C6.59909 5.72785 7.46821 5.26056 8.41602 5.12887C9.36382 4.99718 10.3274 5.20983 11.1318 5.7282C11.9361 6.24656 12.5278 7.03625 12.7995 7.9538" stroke="#365382" strokeLinecap="round" strokeLinejoin="round"/>
</svg>
